<svg width="51" height="48" viewBox="0 0 51 48" fill="none" xmlns="http://www.w3.org/2000/svg">
<rect width="51" height="48" fill="#E4F4FD"/>
<path d="M18.754 31.5L29.626 18.09H32.146L21.274 31.5H18.754ZM20.842 24.894C20.182 24.894 19.582 24.738 19.042 24.426C18.514 24.102 18.094 23.676 17.782 23.148C17.47 22.62 17.314 22.032 17.314 21.384C17.314 20.736 17.47 20.148 17.782 19.62C18.094 19.08 18.514 18.654 19.042 18.342C19.582 18.03 20.182 17.874 20.842 17.874C21.514 17.874 22.114 18.03 22.642 18.342C23.17 18.654 23.59 19.08 23.902 19.62C24.214 20.148 24.37 20.736 24.37 21.384C24.37 22.032 24.214 22.62 23.902 23.148C23.59 23.676 23.17 24.102 22.642 24.426C22.114 24.738 21.514 24.894 20.842 24.894ZM20.842 23.076C21.202 23.076 21.502 22.998 21.742 22.842C21.982 22.674 22.162 22.464 22.282 22.212C22.414 21.948 22.48 21.672 22.48 21.384C22.48 21.084 22.414 20.808 22.282 20.556C22.162 20.304 21.982 20.094 21.742 19.926C21.502 19.758 21.202 19.674 20.842 19.674C20.506 19.674 20.212 19.758 19.96 19.926C19.72 20.094 19.534 20.31 19.402 20.574C19.27 20.826 19.204 21.096 19.204 21.384C19.204 21.66 19.27 21.93 19.402 22.194C19.534 22.458 19.72 22.674 19.96 22.842C20.212 22.998 20.506 23.076 20.842 23.076ZM29.986 31.716C29.326 31.716 28.726 31.56 28.186 31.248C27.658 30.924 27.238 30.498 26.926 29.97C26.614 29.442 26.458 28.854 26.458 28.206C26.458 27.558 26.614 26.97 26.926 26.442C27.238 25.902 27.658 25.476 28.186 25.164C28.726 24.852 29.326 24.696 29.986 24.696C30.658 24.696 31.258 24.852 31.786 25.164C32.314 25.476 32.734 25.902 33.046 26.442C33.358 26.97 33.514 27.558 33.514 28.206C33.514 28.854 33.358 29.442 33.046 29.97C32.734 30.498 32.314 30.924 31.786 31.248C31.258 31.56 30.658 31.716 29.986 31.716ZM29.986 29.898C30.334 29.898 30.628 29.82 30.868 29.664C31.12 29.496 31.306 29.286 31.426 29.034C31.558 28.77 31.624 28.494 31.624 28.206C31.624 27.906 31.558 27.63 31.426 27.378C31.306 27.126 31.12 26.916 30.868 26.748C30.628 26.58 30.334 26.496 29.986 26.496C29.65 26.496 29.356 26.58 29.104 26.748C28.864 26.916 28.678 27.132 28.546 27.396C28.414 27.648 28.348 27.918 28.348 28.206C28.348 28.482 28.414 28.752 28.546 29.016C28.678 29.28 28.864 29.496 29.104 29.664C29.356 29.82 29.65 29.898 29.986 29.898Z" fill="#4E6E7E"/>
</svg>
