<svg width="44" height="48" viewBox="0 0 44 48" fill="none" xmlns="http://www.w3.org/2000/svg">
<rect width="44" height="48" fill="#E4F4FD"/>
<path d="M16.648 31.5V29.43H18.448V22.248C18.448 21.372 18.628 20.61 18.988 19.962C19.36 19.302 19.882 18.792 20.554 18.432C21.238 18.06 22.042 17.874 22.966 17.874C23.698 17.874 24.37 18.012 24.982 18.288C25.606 18.564 26.128 18.954 26.548 19.458C26.968 19.95 27.22 20.538 27.304 21.222L25.144 21.888C25.06 21.288 24.814 20.838 24.406 20.538C24.01 20.226 23.53 20.07 22.966 20.07C22.306 20.07 21.796 20.262 21.436 20.646C21.076 21.018 20.896 21.552 20.896 22.248V29.43H26.71V31.5H16.648ZM16.648 25.434V23.922H24.208V25.434H16.648Z" fill="#4E6E7E"/>
</svg>
