<svg width="80" height="48" viewBox="0 0 80 48" fill="none" xmlns="http://www.w3.org/2000/svg">
<rect width="80" height="48" fill="#E4F4FD"/>
<path d="M18.286 35.478C18.022 35.478 17.764 35.454 17.512 35.406C17.26 35.37 17.032 35.304 16.828 35.208V33.228C16.984 33.264 17.17 33.3 17.386 33.336C17.614 33.372 17.824 33.39 18.016 33.39C18.556 33.39 18.946 33.264 19.186 33.012C19.438 32.76 19.66 32.43 19.852 32.022L20.5 30.51L20.464 32.49L16.198 21.708H18.736L21.724 29.664H20.824L23.794 21.708H26.35L22.084 32.49C21.832 33.126 21.526 33.666 21.166 34.11C20.806 34.554 20.386 34.89 19.906 35.118C19.438 35.358 18.898 35.478 18.286 35.478ZM32.1131 31.716C31.1051 31.716 30.2231 31.488 29.4671 31.032C28.7111 30.576 28.1231 29.958 27.7031 29.178C27.2831 28.398 27.0731 27.534 27.0731 26.586C27.0731 25.602 27.2831 24.732 27.7031 23.976C28.1351 23.208 28.7171 22.602 29.4491 22.158C30.1931 21.714 31.0211 21.492 31.9331 21.492C32.7011 21.492 33.3731 21.618 33.9491 21.87C34.5371 22.122 35.0351 22.47 35.4431 22.914C35.8511 23.358 36.1631 23.868 36.3791 24.444C36.5951 25.008 36.7031 25.62 36.7031 26.28C36.7031 26.448 36.6911 26.622 36.6671 26.802C36.6551 26.982 36.6251 27.138 36.5771 27.27H29.0171V25.47H35.2451L34.1291 26.316C34.2371 25.764 34.2071 25.272 34.0391 24.84C33.8831 24.408 33.6191 24.066 33.2471 23.814C32.8871 23.562 32.4491 23.436 31.9331 23.436C31.4411 23.436 31.0031 23.562 30.6191 23.814C30.2351 24.054 29.9411 24.414 29.7371 24.894C29.5451 25.362 29.4731 25.932 29.5211 26.604C29.4731 27.204 29.5511 27.738 29.7551 28.206C29.9711 28.662 30.2831 29.016 30.6911 29.268C31.1111 29.52 31.5911 29.646 32.1311 29.646C32.6711 29.646 33.1271 29.532 33.4991 29.304C33.8831 29.076 34.1831 28.77 34.3991 28.386L36.3071 29.322C36.1151 29.79 35.8151 30.204 35.4071 30.564C34.9991 30.924 34.5131 31.206 33.9491 31.41C33.3971 31.614 32.7851 31.716 32.1131 31.716ZM41.4254 31.716C40.7414 31.716 40.1474 31.602 39.6434 31.374C39.1394 31.146 38.7494 30.822 38.4734 30.402C38.1974 29.97 38.0594 29.472 38.0594 28.908C38.0594 28.368 38.1794 27.888 38.4194 27.468C38.6594 27.036 39.0314 26.676 39.5354 26.388C40.0394 26.1 40.6754 25.896 41.4434 25.776L44.6474 25.254V27.054L41.8934 27.522C41.4254 27.606 41.0774 27.756 40.8494 27.972C40.6214 28.188 40.5074 28.47 40.5074 28.818C40.5074 29.154 40.6334 29.424 40.8854 29.628C41.1494 29.82 41.4734 29.916 41.8574 29.916C42.3494 29.916 42.7814 29.814 43.1534 29.61C43.5374 29.394 43.8314 29.1 44.0354 28.728C44.2514 28.356 44.3594 27.948 44.3594 27.504V24.984C44.3594 24.564 44.1914 24.216 43.8554 23.94C43.5314 23.652 43.0994 23.508 42.5594 23.508C42.0554 23.508 41.6054 23.646 41.2094 23.922C40.8254 24.186 40.5434 24.54 40.3634 24.984L38.4374 24.048C38.6294 23.532 38.9294 23.088 39.3374 22.716C39.7574 22.332 40.2494 22.032 40.8134 21.816C41.3774 21.6 41.9894 21.492 42.6494 21.492C43.4534 21.492 44.1614 21.642 44.7734 21.942C45.3854 22.23 45.8594 22.638 46.1954 23.166C46.5434 23.682 46.7174 24.288 46.7174 24.984V31.5H44.4854V29.826L44.9894 29.79C44.7374 30.21 44.4374 30.564 44.0894 30.852C43.7414 31.128 43.3454 31.344 42.9014 31.5C42.4574 31.644 41.9654 31.716 41.4254 31.716ZM48.8968 31.5V21.708H51.1108V23.886L50.9308 23.562C51.1588 22.83 51.5128 22.32 51.9928 22.032C52.4848 21.744 53.0728 21.6 53.7568 21.6H54.3328V23.688H53.4868C52.8148 23.688 52.2748 23.898 51.8668 24.318C51.4588 24.726 51.2548 25.302 51.2548 26.046V31.5H48.8968ZM59.3553 31.716C58.3113 31.716 57.3993 31.47 56.6193 30.978C55.8513 30.474 55.3233 29.796 55.0353 28.944L56.7993 28.098C57.0513 28.65 57.3993 29.082 57.8433 29.394C58.2993 29.706 58.8033 29.862 59.3553 29.862C59.7873 29.862 60.1293 29.766 60.3813 29.574C60.6333 29.382 60.7593 29.13 60.7593 28.818C60.7593 28.626 60.7053 28.47 60.5973 28.35C60.5013 28.218 60.3633 28.11 60.1833 28.026C60.0153 27.93 59.8293 27.852 59.6253 27.792L58.0233 27.342C57.1953 27.102 56.5653 26.736 56.1333 26.244C55.7133 25.752 55.5033 25.17 55.5033 24.498C55.5033 23.898 55.6533 23.376 55.9533 22.932C56.2653 22.476 56.6913 22.122 57.2313 21.87C57.7833 21.618 58.4133 21.492 59.1213 21.492C60.0453 21.492 60.8613 21.714 61.5693 22.158C62.2773 22.602 62.7813 23.226 63.0813 24.03L61.2813 24.876C61.1133 24.432 60.8313 24.078 60.4353 23.814C60.0393 23.55 59.5953 23.418 59.1033 23.418C58.7073 23.418 58.3953 23.508 58.1673 23.688C57.9393 23.868 57.8253 24.102 57.8253 24.39C57.8253 24.57 57.8733 24.726 57.9693 24.858C58.0653 24.99 58.1973 25.098 58.3653 25.182C58.5453 25.266 58.7493 25.344 58.9773 25.416L60.5433 25.884C61.3473 26.124 61.9653 26.484 62.3973 26.964C62.8413 27.444 63.0633 28.032 63.0633 28.728C63.0633 29.316 62.9073 29.838 62.5953 30.294C62.2833 30.738 61.8513 31.086 61.2993 31.338C60.7473 31.59 60.0993 31.716 59.3553 31.716Z" fill="#4E6E7E"/>
</svg>
